# AST/ASF file generated using VICON BodyLanguage
# -----------------------------------------------
:version 1.10
:name VICON
:units
  mass 1.0
  length 0.45
  angle deg
:documentation
   .ast/.asf automatically generated from VICON data using
   VICON BodyBuilder and BodyLanguage model FoxedUp or BRILLIANT.MOD
:root
   order TX TY TZ RX RY RZ
   axis XYZ
   position 0 0 0  
   orientation 0 0 0 
:bonedata
  begin
     id 1 
     name lhipjoint
     direction 0.62366 -0.717238 0.310833 
     length 2.53602 
     axis 0 0 0  XYZ
  end
  begin
     id 2 
     name lfemur
     direction 0.34202 -0.939693 0  
     length 7.40817  
     axis 0 0 20  XYZ
    dof rx ry rz
    limits (-160.0 20.0)
           (-70.0 70.0)
           (-60.0 70.0)
  end
  begin
     id 3 
     name ltibia
     direction 0.34202 -0.939693 0   
     length 7.7045   
     axis 0 0 20   XYZ
    dof rx
    limits (-10.0 170.0)
  end
  begin
     id 4 
     name lfoot
     direction 0.0673888 -0.185149 0.980397   
     length 2.09456   
     axis -90 7.62852e-016 20   XYZ
    dof rx rz
    limits (-45.0 90.0)
           (-70.0 20.0)
  end
  begin
     id 5 
     name ltoes
     direction 1.53575e-011 -4.21994e-011 1   
     length 1.05543   
     axis -90 7.62852e-016 20   XYZ
    dof rx
    limits (-90.0 20.0)
  end
  begin
     id 6 
     name rhipjoint
     direction -0.489018 -0.800347 0.346851   
     length 2.27268  
     axis 0 0 0  XYZ 
  end
  begin
     id 7 
     name rfemur
     direction -0.34202 -0.939693 0   
     length 7.55487   
     axis 0 0 -20   XYZ
    dof rx ry rz
    limits (-160.0 20.0)
           (-70.0 70.0)
           (-70.0 60.0)
  end
  begin
     id 8 
     name rtibia
     direction -0.34202 -0.939693 0   
     length 7.78969   
     axis 0 0 -20   XYZ
    dof rx
    limits (-10.0 170.0)
 end
 begin
     id 9 
     name rfoot
     direction -0.0859318 -0.236096 0.967923   
     length 2.19143  
     axis -90 -7.62852e-016 -20   XYZ
    dof rx rz
    limits (-45.0 90.0)
           (-20.0 70.0)
  end
  begin
     id 10 
     name rtoes
     direction -1.53538e-011 -4.21989e-011 1   
     length 1.09845   
     axis -90 -7.62852e-016 -20   XYZ
    dof rx
    limits (-90.0 20.0)
  end
  begin
     id 11 
     name lowerback
     direction -0.00762546 0.998978 -0.0445553   
     length 1.98161   
     axis 0 0 0   XYZ
    dof rx ry rz
    limits (-20.0 45.0)
           (-30.0 30.0)
           (-30.0 30.0)
  end
  begin
     id 12 
     name upperback
     direction 0.0422361 0.998867 -0.0219156   
     length 1.97558   
     axis 0 0 0   XYZ
    dof rx ry rz
    limits (-20.0 45.0)
           (-30.0 30.0)
           (-30.0 30.0)
  end
  begin
     id 13 
     name thorax
     direction 0.0442465 0.999021 7.47603e-005   
     length 1.97799   
     axis 0 0 0   XYZ
    dof rx ry rz
    limits (-20.0 45.0)
           (-30.0 30.0)
           (-30.0 30.0)
  end
  begin
     id 14 
     name lowerneck
     direction 0.00312169 0.984641 0.174564   
     length 1.78995   
     axis 0 0 0   XYZ
    dof rx ry rz
    limits (-20.0 45.0)
           (-30.0 30.0)
           (-30.0 30.0)
  end
  begin
     id 15 
     name upperneck
     direction -0.0383028 0.985255 -0.166749   
     length 1.83053   
     axis 0 0 0   XYZ
    dof rx ry rz
    limits (-20.0 45.0)
           (-30.0 30.0)
           (-30.0 30.0)
  end
  begin
     id 16
     name head
     direction -0.0129546 0.997059 -0.0755386  
     length 1.84088  
     axis 0 0 0   XYZ
    dof rx ry rz
    limits (-20.0 45.0)
           (-30.0 30.0)
           (-30.0 30.0)
  end
  begin
     id 17 
     name lclavicle
     direction 0.912857 0.370519 -0.171488  
     length 3.51279  
     axis 0 0 0   XYZ
    dof ry rz
    limits (-20.0 10.0)
           (0.0 20.0)
  end
  begin
     id 18 
     name lhumerus
     direction 1 -4.48962e-011 3.64361e-027   
     length 4.95663   
     axis 180 -30 -90   XYZ
    dof rx ry rz
    limits (-60.0 90.0)
           (-90.0 90.0)
           (-90.0 90.0)
  end
  begin
     id 19
     name lradius
     direction 1 -4.48974e-011 5.97202e-027   
     length 3.38177   
     axis 180 -30 -90   XYZ
    dof rx
    limits (-10.0 170.0)
  end
  begin
     id 20
     name lwrist
     direction 1 -4.4896e-011 9.83288e-027   
     length 1.69088   
     axis -9.31221e-015 90 90   XYZ
    dof ry
    limits (-180.0 0.0)
 end
  begin
     id 21 
     name lhand
     direction 1 -4.4902e-011 1.96551e-026   
     length 0.662909   
     axis -1.25475e-014 90 90   XYZ
    dof rx rz
    limits (-90.0 90.0)
           (-45.0 45.0)
  end
  begin
     id 22 
     name lfingers
     direction 1 -4.48971e-011 3.93277e-026   
     length 0.534454   
     axis -2.50945e-014 90 90   XYZ
    dof rx
    limits (0.0 90.0)
  end
  begin
     id 23
     name lthumb
     direction 0.707107 -6.34933e-011 0.707107   
     length 0.767373   
     axis -90 45 -4.80359e-014   XYZ
    dof rx rz
    limits (-45.0 45.0)
           (-45.0 45.0)
  end
  begin
     id 24 
     name rclavicle
     direction -0.900919 0.395364 -0.178976   
     length 3.40627  
     axis 0 0 0   XYZ 
    dof ry rz
    limits (-10.0 20.0)
           (-20.0 0.0)
  end
  begin
     id 25 
     name rhumerus
     direction -1 -4.48969e-011 1.03875e-027  
     length 5.08365   
     axis 180 30 90   XYZ
    dof rx ry rz
    limits (-90.0 60.0)
           (-90.0 90.0)
           (-90.0 90.0)
  end
  begin
     id 26 
     name rradius
     direction -1 -4.48951e-011 5.02733e-027   
     length 3.35984   
     axis 180 30 90   XYZ
    dof rx
    limits (-10.0 170.0)
  end
  begin
     id 27 
     name rwrist
     direction -1 -4.49011e-011 9.82828e-027   
     length 1.67992   
     axis -9.31221e-015 -90 -90   XYZ
    dof ry
    limits (-180.0 0.0)
  end
  begin
     id 28
     name rhand
     direction -1 -4.48894e-011 1.96774e-026   
     length 0.820764   
     axis -1.25475e-014 -90 -90   XYZ
    dof rx rz
    limits (-90.0 90.0)
           (-45.0 45.0)
  end
  begin
     id 29
     name rfingers
     direction -1 -4.49095e-011 3.92833e-026   
     length 0.661721   
     axis -2.50945e-014 -90 -90   XYZ
    dof rx
    limits (0.0 90.0)
  end
  begin
     id 30
     name rthumb
     direction -0.707107 -6.34881e-011 0.707107   
     length 0.950103   
     axis -90 -45 4.80359e-014   XYZ
    dof rx rz
    limits (-45.0 45.0)
           (-45.0 45.0)
  end
:hierarchy
  begin
    root lhipjoint rhipjoint lowerback
    lhipjoint lfemur
    lfemur ltibia
    ltibia lfoot
    lfoot ltoes
    rhipjoint rfemur
    rfemur rtibia
    rtibia rfoot
    rfoot rtoes
    lowerback upperback
    upperback thorax
    thorax lowerneck lclavicle rclavicle
    lowerneck upperneck
    upperneck head
    lclavicle lhumerus
    lhumerus lradius
    lradius lwrist
    lwrist lhand lthumb
    lhand lfingers
    rclavicle rhumerus
    rhumerus rradius
    rradius rwrist
    rwrist rhand rthumb
    rhand rfingers
  end

#!OML:ASF I:\golf\golf\golf 2\Subject 1\2002-09-07\Subject1.ASF
:FULLY-SPECIFIED
:DEGREES
96
root -0.124661 18.1032 -5.52852 10.9506 5.00723 -3.19489
lowerback 3.37653 1.70202 -4.67673
upperback 3.51702 2.16631 1.16586
thorax 1.51534 0.974263 3.77692
lowerneck -14.0406 2.60621 4.67387
upperneck 42.2555 6.65491 -8.85795
head 19.0118 2.29528 -3.8199
rclavicle 1.16289e-014 -8.54774e-015
rhumerus -35.4163 33.8247 -96.0907
rradius 91.3753
rwrist -18.8412
rhand -11.1002 21.3698
rfingers 7.12502
rthumb 14.924 -8.07253
lclavicle 1.16289e-014 -8.54774e-015
lhumerus -33.9466 -37.2837 98.0649
lradius 82.8778
lwrist 14.1629
lhand -10.7703 33.9543
lfingers 7.12502
lthumb 15.2417 63.3728
rfemur -35.3569 -7.40793 24.4633
rtibia 40.5145
rfoot -7.88991 -8.84081
rtoes -3.66697
lfemur -15.8339 5.69436 -19.7453
ltibia 23.5801
lfoot -15.5582 -2.27819
ltoes -0.336084
97
root -0.127899 18.1068 -5.50388 11.0975 5.04287 -3.10271
lowerback 3.39951 1.69712 -4.87634
upperback 3.58944 2.15603 1.18392
thorax 1.57192 0.961815 3.90903
lowerneck -14.1137 2.62114 4.5991
upperneck 42.2113 6.6749 -8.80901
head 18.9998 2.29512 -3.77439
rclavicle -1.46107e-014 -6.75868e-015
rhumerus -35.1477 33.8352 -95.9008
rradius 91.3614
rwrist -19.0653
rhand -11.321 21.5056
rfingers 7.12502
rthumb 14.7113 -7.95246
lclavicle -1.46107e-014 -6.75868e-015
lhumerus -33.7141 -37.2443 97.9004
lradius 82.7302
lwrist 14.0798
lhand -10.6867 33.9773
lfingers 7.12502
lthumb 15.3223 63.3897
rfemur -35.4439 -7.57699 24.5035
rtibia 39.4659
rfoot -7.44775 -8.85679
rtoes -5.69148
lfemur -15.8268 5.80626 -19.8287
ltibia 23.4185
lfoot -15.5042 -2.49189
ltoes 0.030575
98
root -0.126254 18.1087 -5.4772 11.2445 5.15397 -3.01774
lowerback 3.50395 1.69056 -4.87227
upperback 3.58655 2.1426 1.11185
thorax 1.51457 0.957615 3.82915
lowerneck -14.0646 2.59692 4.70784
upperneck 42.1633 6.61357 -8.85236
head 18.9548 2.28436 -3.82481
rclavicle 8.15017e-015 -1.15295e-014
rhumerus -35.0426 33.6012 -95.8765
rradius 91.3528
rwrist -19.1604
rhand -11.364 21.4096
rfingers 7.12502
rthumb 14.6699 -8.05147
lclavicle 8.15017e-015 -1.15295e-014
lhumerus -33.7185 -37.3062 97.7666
lradius 82.5842
lwrist 14.0044
lhand -10.8318 33.8965
lfingers 7.12502
lthumb 15.1826 63.3195
rfemur -35.5272 -7.91369 24.5861
rtibia 38.4096
rfoot -7.24233 -8.83611
rtoes -6.76424
lfemur -15.7999 5.69167 -19.9088
ltibia 23.2512
lfoot -15.5095 -2.53014
ltoes 0.399477
99
root -0.125449 18.1095 -5.45185 11.3814 5.26238 -3.09571
lowerback 3.62947 1.6906 -4.64267
upperback 3.60526 2.14207 1.04323
thorax 1.47307 0.963595 3.62546
lowerneck -14.0716 2.58183 4.90235
upperneck 42.09 6.55903 -8.9563
head 18.9188 2.28092 -3.91858
rclavicle -3.86636e-014 4.37326e-015
rhumerus -34.8009 33.3807 -95.8474
rradius 91.2819
rwrist -19.1677
rhand -11.4836 21.1375
rfingers 7.12502
rthumb 14.5546 -8.33188
lclavicle -3.86636e-014 4.37326e-015
lhumerus -33.6774 -37.3492 97.5347
lradius 82.4555
lwrist 13.8929
lhand -10.7851 33.7198
lfingers 7.12502
lthumb 15.2275 63.1394
rfemur -35.6199 -8.1719 24.8349
rtibia 37.3455
rfoot -7.47576 -8.83378
rtoes -4.51342
lfemur -15.7858 5.58322 -19.8086
ltibia 23.0663
lfoot -15.5277 -2.4516
ltoes -0.268699
100
root -0.127292 18.1123 -5.42916 11.6169 5.55401 -3.22774
lowerback 3.64789 1.60447 -4.36308
upperback 3.63697 2.03341 1.03766
thorax 1.51419 0.913585 3.46582
lowerneck -14.1249 2.59263 4.96035
upperneck 42.0003 6.5506 -8.97419
head 18.8794 2.2826 -3.93371
rclavicle -1.09332e-014 -9.93923e-015
rhumerus -34.4753 33.3035 -95.7412
rradius 91.1622
rwrist -19.0369
rhand -11.7736 21.1031
rfingers 7.12502
rthumb 14.2752 -8.38627
lclavicle -1.09332e-014 -9.93923e-015
lhumerus -33.4713 -37.2622 97.2897
lradius 82.2514
lwrist 13.749
lhand -9.33438 33.6253
lfingers 7.12502
lthumb 16.6245 62.9333
rfemur -35.7988 -8.38396 25.1277
rtibia 36.269
rfoot -8.06829 -8.9284
rtoes 0.546831
lfemur -15.934 5.45423 -19.617
ltibia 22.8541
lfoot -15.5059 -2.45833
ltoes -1.47612
101
root -0.128219 18.1177 -5.40258 11.867 5.87945 -3.27553
lowerback 3.59975 1.47011 -4.21404
upperback 3.66034 1.86032 1.06672
thorax 1.58414 0.827855 3.41881
lowerneck -14.1919 2.61508 4.86867
upperneck 42.0044 6.57539 -8.8867
head 18.894 2.28615 -3.86876
rclavicle -2.98177e-014 -1.11319e-014
rhumerus -34.2342 33.4106 -95.603
rradius 91.0403
rwrist -18.9411
rhand -12.1894 21.1864
rfingers 7.12502
rthumb 13.8745 -8.33074
lclavicle -2.98177e-014 -1.11319e-014
lhumerus -33.0321 -37.405 97.0674
lradius 81.7523
lwrist 13.6629
lhand -9.38962 34.3902
lfingers 7.12502
lthumb 16.5714 63.7027
rfemur -35.944 -8.62688 25.3234
rtibia 35.1838
rfoot -8.31041 -9.00707
rtoes 2.30128
lfemur -16.0573 5.21434 -19.4947
ltibia 22.6297
lfoot -15.4532 -2.49568
ltoes -1.67553
102
root -0.129499 18.1238 -5.36858 12.0276 5.85606 -3.21293
lowerback 3.54809 1.41996 -4.32736
upperback 3.74481 1.79472 1.09618
thorax 1.70281 0.787879 3.51762
lowerneck -14.3011 2.66059 4.70246
upperneck 42.0457 6.66664 -8.80321
head 18.9504 2.30226 -3.78164
rclavicle -7.35503e-015 8.74653e-015
rhumerus -33.9834 33.6315 -95.4303
rradius 90.9589
rwrist -18.9645
rhand -12.5677 21.115
rfingers 7.12502
rthumb 13.5099 -8.42673
lclavicle -7.35503e-015 8.74653e-015
lhumerus -32.9457 -36.9089 96.8569
lradius 81.5198
lwrist 12.9824
lhand -9.29126 33.8332
lfingers 7.12502
lthumb 16.6661 63.1377
rfemur -35.9432 -8.69127 25.3305
rtibia 34.0896
rfoot -8.18152 -8.88488
rtoes 2.64643
lfemur -15.9831 5.15387 -19.5446
ltibia 22.4161
lfoot -15.3929 -2.4936
ltoes -1.0563
103
root -0.131387 18.1291 -5.33614 12.1873 5.77851 -3.18586
lowerback 3.57156 1.41984 -4.36208
upperback 3.81251 1.79387 1.09827
thorax 1.75901 0.784017 3.5399
lowerneck -14.4153 2.6847 4.5549
upperneck 42.0763 6.72596 -8.73607
head 18.9988 2.30695 -3.71134
rclavicle 1.59028e-015 -1.82882e-014
rhumerus -33.6841 33.7089 -95.27
rradius 90.8654
rwrist -18.8385
rhand -12.9446 20.8709
rfingers 7.12502
rthumb 13.1466 -8.69467
lclavicle 1.59028e-015 -1.82882e-014
lhumerus -32.7898 -36.6747 96.6535
lradius 81.2053
lwrist 12.4463
lhand -10.7329 33.1961
lfingers 7.12502
lthumb 15.2778 62.6119
rfemur -35.9241 -8.57913 25.302
rtibia 33.0068
rfoot -8.16866 -8.69194
rtoes 4.69664
lfemur -15.9173 5.14537 -19.5728
ltibia 22.2016
lfoot -15.2779 -2.50216
ltoes -0.22643
104
root -0.136354 18.1336 -5.30827 12.3692 5.86353 -3.27933
lowerback 3.69132 1.47778 -4.16341
upperback 3.76513 1.86937 1.04518
thorax 1.64256 0.830479 3.36719
lowerneck -14.3458 2.61032 4.64176
upperneck 42.1212 6.56553 -8.687
head 18.9865 2.26675 -3.73742
rclavicle -5.31749e-014 2.78299e-015
rhumerus -33.5199 33.4008 -95.2134
rradius 90.7341
rwrist -18.5813
rhand -13.3832 20.5307
rfingers 7.12502
rthumb 12.7238 -9.06159
lclavicle -5.31749e-014 2.78299e-015
lhumerus -32.8352 -36.8764 96.5754
lradius 80.8693
lwrist 12.0672
lhand -10.315 34.4056
lfingers 7.12502
lthumb 15.6803 63.7903
rfemur -35.9716 -8.45822 25.4224
rtibia 31.9674
rfoot -8.10462 -8.68813
rtoes 5.20408
lfemur -15.9253 5.01295 -19.4246
ltibia 21.9782
lfoot -15.1999 -2.41988
ltoes -0.172701
105
root -0.145024 18.1353 -5.27738 12.559 5.90707 -3.32029
lowerback 3.70415 1.53533 -4.07148
upperback 3.75687 1.94763 0.992618
thorax 1.62404 0.872795 3.25847
lowerneck -14.1494 2.52268 4.76184
upperneck 42.034 6.37824 -8.68044
head 18.8545 2.21786 -3.78633
rclavicle -1.78906e-015 -1.19271e-014
rhumerus -33.3134 33.1386 -95.1105
rradius 90.5763
rwrist -18.3799
rhand -13.7368 20.3689
rfingers 7.12502
rthumb 12.3829 -9.24436
lclavicle -1.78906e-015 -1.19271e-014
lhumerus -32.7586 -37.0711 96.4303
lradius 80.499
lwrist 11.6758
lhand -9.55993 35.6063
lfingers 7.12502
lthumb 16.4074 64.9324
rfemur -36.037 -8.35643 25.5118
rtibia 30.9769
rfoot -7.91458 -8.69945
rtoes 3.87416
lfemur -15.9351 4.97886 -19.3418
ltibia 21.7829
lfoot -15.2532 -2.27446
ltoes -1.27132
